HIERARCHY
ROOT Hips
{
    OFFSET 0.000000 0.000000 0.000000
    CHANNELS 6 Xposition Yposition Zposition Zrotation Xrotation Yrotation
    JOINT Spine
    {
        OFFSET -0.000000 0.083210 0.000000
        CHANNELS 3 Zrotation Xrotation Yrotation
        JOINT Spine1
        {
            OFFSET -0.000000 0.256334 0.000000
            CHANNELS 3 Zrotation Xrotation Yrotation
            JOINT Neck
            {
                OFFSET -0.000000 0.275576 0.002912
                CHANNELS 3 Zrotation Xrotation Yrotation
                JOINT Head
                {
                    OFFSET -0.000000 0.157287 0.020295
                    CHANNELS 3 Zrotation Xrotation Yrotation
                    End Site
                    {
                        OFFSET -0.000000 0.202951 0.000000
                    }
                }
            }
            JOINT LeftShoulder
            {
                OFFSET 0.041044 0.235234 -0.000041
                CHANNELS 3 Zrotation Xrotation Yrotation
                JOINT LeftArm
                {
                    OFFSET 0.117964 0.000000 0.000000
                    CHANNELS 3 Zrotation Xrotation Yrotation
                    JOINT LeftForeArm
                    {
                        OFFSET 0.291248 0.000000 0.000000
                        CHANNELS 3 Zrotation Xrotation Yrotation
                        JOINT LeftHand
                        {
                            OFFSET 0.245673 0.000000 0.000000
                            CHANNELS 3 Zrotation Xrotation Yrotation
                            End Site
                            {
                                OFFSET 0.152213 0.000000 0.000000
                            }
                        }
                    }
                }
            }
            JOINT RightShoulder
            {
                OFFSET -0.040052 0.235234 -0.000041
                CHANNELS 3 Zrotation Xrotation Yrotation
                JOINT RightArm
                {
                    OFFSET -0.117964 0.000000 0.000000
                    CHANNELS 3 Zrotation Xrotation Yrotation
                    JOINT RightForeArm
                    {
                        OFFSET -0.291248 0.000000 0.000000
                        CHANNELS 3 Zrotation Xrotation Yrotation
                        JOINT RightHand
                        {
                            OFFSET -0.245673 0.000000 0.000000
                            CHANNELS 3 Zrotation Xrotation Yrotation
                            End Site
                            {
                                OFFSET -0.152213 0.000000 0.000000
                            }
                        }
                    }
                }
            }
        }
    }
    JOINT LeftUpLeg
    {
        OFFSET 0.101475 0.000000 0.000000
        CHANNELS 3 Zrotation Xrotation Yrotation
        JOINT LeftLeg
        {
            OFFSET -0.000000 -0.446535 0.000000
            CHANNELS 3 Zrotation Xrotation Yrotation
            JOINT LeftFoot
            {
                OFFSET -0.000000 -0.400037 0.000000
                CHANNELS 3 Zrotation Xrotation Yrotation
                JOINT LeftToeBase
                {
                    OFFSET -0.000000 -0.065959 0.152213
                    CHANNELS 3 Zrotation Xrotation Yrotation
                    End Site
                    {
                        OFFSET -0.000000 0.000000 0.040590
                    }
                }
            }
        }
    }
    JOINT RightUpLeg
    {
        OFFSET -0.101475 0.000000 0.000000
        CHANNELS 3 Zrotation Xrotation Yrotation
        JOINT RightLeg
        {
            OFFSET -0.000000 -0.446535 0.000000
            CHANNELS 3 Zrotation Xrotation Yrotation
            JOINT RightFoot
            {
                OFFSET -0.000000 -0.400037 0.000000
                CHANNELS 3 Zrotation Xrotation Yrotation
                JOINT RightToeBase
                {
                    OFFSET -0.000000 -0.065959 0.152213
                    CHANNELS 3 Zrotation Xrotation Yrotation
                    End Site
                    {
                        OFFSET -0.000000 0.000000 0.040590
                    }
                }
            }
        }
    }
}
MOTION
Frames:    13
Frame Time:    0.008333
-0.445221    0.953392    -0.717783    1.193736    -0.825938    -1.627952    -0.514580    -1.755270    -0.109826    -0.612380    1.321942    -0.027371    0.335180    1.676663    0.544593    1.844391    3.067145    0.325948    15.683508    -2.505803    -0.160178    -21.951845    3.176882    5.489649    0.541934    1.073020    0.618964    9.703597    1.294337    2.641343    -13.537437    -2.321771    5.317995    20.837465    0.268513    -3.312597    -2.735072    -0.722051    1.503761    4.664172    -0.817195    -3.215247    4.085108    6.089781    2.115596    -0.538604    1.369763    4.533089    -4.821180    -6.031258    -1.331489    0.081488    2.419080    -0.763124    -5.580555    1.430218    7.637184    2.355144    9.530515    5.429932    2.853145    -10.938459    -10.120719    -0.032226    -1.234599    -0.885802    
-0.445237    0.953384    -0.717663    1.196314    -0.812113    -1.614682    -0.514487    -1.761073    -0.105408    -0.611964    1.319350    -0.026141    0.328563    1.678715    0.541976    1.837319    3.077998    0.323278    15.668599    -2.503572    -0.170087    -21.955744    3.171559    5.473868    0.544382    1.066327    0.616664    9.697742    1.287041    2.636347    -13.534922    -2.323406    5.305218    20.832407    0.243991    -3.321902    -2.701508    -0.684067    1.506485    4.524527    -0.772730    -3.141392    4.084343    6.081749    2.112462    -0.536590    1.368990    4.526628    -4.824699    -6.035572    -1.335563    0.081703    2.424705    -0.764794    -5.582231    1.429934    7.631548    2.356597    9.524124    5.416096    2.852934    -10.942470    -10.110858    -0.032518    -1.241916    -0.892278    
-0.445256    0.953370    -0.717545    1.197105    -0.799521    -1.600309    -0.510564    -1.765171    -0.104599    -0.615781    1.319964    -0.025034    0.322666    1.670084    0.540516    1.832526    3.092107    0.321387    15.653980    -2.509729    -0.178844    -21.958256    3.180499    5.464781    0.544322    1.065992    0.614068    9.689652    1.285762    2.627122    -13.529213    -2.324314    5.290577    20.826824    0.224526    -3.325052    -2.669915    -0.653823    1.508679    4.451681    -0.743091    -3.200058    4.086267    6.073383    2.104305    -0.536558    1.371074    4.528236    -4.827509    -6.043256    -1.341123    0.082502    2.423823    -0.772323    -5.581412    1.431318    7.626649    2.356702    9.518297    5.414413    2.853425    -10.948524    -10.117990    -0.032672    -1.241606    -0.896572    
-0.445285    0.953354    -0.717423    1.199468    -0.785908    -1.584912    -0.508915    -1.770890    -0.105371    -0.625186    1.321759    -0.025160    0.331411    1.658550    0.539878    1.820187    3.105457    0.323705    15.654312    -2.512367    -0.183199    -21.965157    3.183390    5.451107    0.527651    1.067297    0.617328    9.695995    1.286661    2.619722    -13.517888    -2.324613    5.284508    20.828627    0.228930    -3.330543    -2.655019    -0.645560    1.496981    4.459273    -0.735192    -3.192469    4.088532    6.064061    2.095738    -0.538435    1.373513    4.509130    -4.824440    -6.049144    -1.328535    0.082058    2.426515    -0.767998    -5.581732    1.432758    7.625261    2.358988    9.510644    5.391510    2.846946    -10.952598    -10.108603    -0.032730    -1.243936    -0.897667    
-0.445306    0.953339    -0.717296    1.202043    -0.773436    -1.569446    -0.504590    -1.775772    -0.106838    -0.635506    1.325379    -0.026738    0.331993    1.651422    0.540065    1.817622    3.106506    0.324203    15.646684    -2.507318    -0.184330    -21.965752    3.179718    5.432192    0.520509    1.087351    0.629432    9.601314    1.303241    2.604608    -13.509939    -2.328968    5.268826    20.839043    0.250758    -3.324283    -2.649420    -0.647822    1.483914    4.463069    -0.738395    -3.202042    4.089679    6.056198    2.090220    -0.539167    1.375528    4.505508    -4.829012    -6.056553    -1.335463    0.081695    2.427369    -0.764549    -5.583211    1.433033    7.610363    2.360610    9.509370    5.395713    2.842454    -10.963307    -10.114424    -0.032690    -1.243360    -0.896688    
-0.445331    0.953319    -0.717165    1.203930    -0.763129    -1.554917    -0.503281    -1.779387    -0.107576    -0.636648    1.333173    -0.027032    0.327399    1.632907    0.541190    1.809051    3.116196    0.325883    15.635161    -2.509606    -0.187420    -21.974169    3.192433    5.417553    0.505684    1.089325    0.635493    9.714608    1.315090    2.689447    -13.512613    -2.326876    5.250300    20.865202    0.285104    -3.311500    -2.666152    -0.664449    1.452439    4.481509    -0.755788    -3.195378    4.090506    6.051397    2.088141    -0.537909    1.377337    4.493361    -4.833418    -6.064922    -1.333993    0.082085    2.438296    -0.767527    -5.583892    1.437662    7.611165    2.363830    9.502930    5.383127    2.838746    -10.969349    -10.118353    -0.032648    -1.243510    -0.895511    
-0.445363    0.953298    -0.717030    1.203345    -0.753181    -1.541237    -0.499702    -1.780596    -0.109719    -0.643889    1.336471    -0.027077    0.338246    1.622394    0.540086    1.792138    3.114280    0.329016    15.634536    -2.515628    -0.189396    -21.993641    3.221521    5.407917    0.498907    1.091367    0.637607    9.848007    1.319497    2.680228    -13.502097    -2.324999    5.238786    20.880945    0.314265    -3.307764    -2.675525    -0.680762    1.427935    4.486829    -0.772354    -3.185937    4.096216    6.048367    2.081775    -0.540294    1.377358    4.489388    -4.837159    -6.069664    -1.337932    0.082294    2.425411    -0.770279    -5.581271    1.442606    7.608194    2.365888    9.498167    5.381673    2.831861    -10.980322    -10.128675    -0.032592    -1.240043    -0.894698    
-0.445399    0.953279    -0.716889    1.204372    -0.743928    -1.526774    -0.501505    -1.783816    -0.114016    -0.643874    1.344874    -0.027584    0.342791    1.609854    0.543367    1.782974    3.109181    0.334585    15.626864    -2.510249    -0.191810    -22.004950    3.221390    5.400306    0.495221    1.095793    0.638857    9.838911    1.322791    2.669108    -13.491232    -2.319250    5.235682    20.888601    0.330054    -3.310998    -2.680512    -0.691615    1.408814    4.498312    -0.784093    -3.192937    4.100404    6.046254    2.074346    -0.542747    1.376315    4.476512    -4.835739    -6.076065    -1.334628    0.081938    2.429083    -0.766721    -5.579532    1.448117    7.608000    2.367110    9.494005    5.369742    2.828058    -10.989771    -10.130340    -0.032668    -1.243020    -0.896160    
-0.445441    0.953262    -0.716750    1.205120    -0.732359    -1.514660    -0.502543    -1.788571    -0.116122    -0.647131    1.352938    -0.029993    0.349420    1.596945    0.544520    1.782144    3.107328    0.336817    15.620397    -2.504006    -0.197787    -22.013868    3.226157    5.400372    0.486597    1.089378    0.640801    9.866336    1.315502    2.651215    -13.479690    -2.315529    5.238533    20.893852    0.322808    -3.326857    -2.675801    -0.689776    1.402586    4.498339    -0.782435    -3.191058    4.104606    6.042392    2.069545    -0.545304    1.374991    4.464812    -4.834079    -6.083024    -1.325584    0.083132    2.428481    -0.777928    -5.577924    1.448527    7.604788    2.369918    9.494280    5.372676    2.821268    -11.001742    -10.141150    -0.032761    -1.245355    -0.898209    
-0.445475    0.953245    -0.716602    1.206238    -0.724388    -1.506446    -0.504393    -1.790134    -0.122119    -0.650835    1.362147    -0.030272    0.368885    1.586287    0.545059    1.755727    3.100847    0.344390    15.616809    -2.502985    -0.207684    -22.030655    3.243166    5.416015    0.498803    1.094426    0.639271    9.726431    1.309689    2.562713    -13.464122    -2.310266    5.245316    20.890825    0.300133    -3.343680    -2.660265    -0.675561    1.411234    4.470159    -0.767310    -3.188210    4.106808    6.042423    2.073133    -0.544809    1.376247    4.446846    -4.840460    -6.091876    -1.322378    0.082678    2.428078    -0.773708    -5.576597    1.453681    7.603683    2.371100    9.491022    5.362009    2.815771    -11.008968    -10.138372    -0.032821    -1.247301    -0.899421    
-0.445508    0.953230    -0.716453    1.205920    -0.714925    -1.495632    -0.506335    -1.791391    -0.127211    -0.647755    1.369531    -0.033289    0.375127    1.579387    0.543290    1.744807    3.086394    0.345411    15.605755    -2.501567    -0.215792    -22.039648    3.248334    5.428154    0.496644    1.099880    0.642016    9.714529    1.315427    2.569472    -13.461250    -2.317558    5.253788    20.896170    0.276842    -3.372980    -2.652714    -0.665336    1.434161    4.541263    -0.757277    -3.155184    4.109273    6.040883    2.079526    -0.542737    1.376294    4.435381    -4.839768    -6.100984    -1.328538    0.082284    2.438120    -0.769395    -5.573319    1.455138    7.601567    2.371904    9.494549    5.365608    2.809510    -11.024862    -10.151944    -0.032574    -1.239353    -0.894370    
-0.445548    0.953213    -0.716305    1.205217    -0.703163    -1.487419    -0.507860    -1.794600    -0.133861    -0.649052    1.374703    -0.034115    0.387375    1.571918    0.544757    1.735114    3.082013    0.350272    15.595982    -2.495836    -0.219529    -22.042742    3.243641    5.433558    0.495261    1.101882    0.653612    9.696314    1.317303    2.572424    -13.452561    -2.329264    5.265049    20.900787    0.257333    -3.401078    -2.638251    -0.642491    1.435565    4.483661    -0.735710    -3.224115    4.114500    6.037646    2.079659    -0.544812    1.376333    4.428159    -4.844935    -6.109184    -1.331269    0.082653    2.435675    -0.772999    -5.569188    1.454322    7.597708    2.371975    9.496756    5.351697    2.804766    -11.036090    -10.142308    -0.032617    -1.244217    -0.894510    
-0.445581    0.953202    -0.716146    1.206468    -0.692113    -1.479654    -0.511683    -1.795657    -0.137392    -0.646074    1.376187    -0.036082    0.385627    1.568737    0.543711    1.739609    3.076136    0.348324    15.576009    -2.485483    -0.228191    -22.033485    3.228569    5.442802    0.478069    1.094645    0.666200    9.747505    1.310330    2.562076    -13.444157    -2.324391    5.271616    20.894133    0.217186    -3.420982    -2.632696    -0.633960    1.461573    4.651216    -0.734478    -3.299765    4.115461    6.033697    2.087832    -0.542911    1.380570    4.410882    -4.851006    -6.119174    -1.327977    0.083205    2.434839    -0.778215    -5.569050    1.454276    7.601821    2.376590    9.499014    5.346124    2.797157    -11.049942    -10.147938    -0.032849    -1.243830    -0.900948    
